<svg width="213" height="35" viewBox="0 0 213 35" fill="none" xmlns="http://www.w3.org/2000/svg">
<path d="M20.7228 3.83467C23.8517 3.83467 26.1273 4.34667 27.5495 5.37067C28.9717 6.36622 29.6828 7.71733 29.6828 9.424C29.6828 10.9031 29.2135 12.24 28.2748 13.4347C27.3646 14.6293 26.1131 15.6391 24.5202 16.464C22.9273 17.2604 21.1211 17.8151 19.1015 18.128C22.1166 18.3556 24.3211 19.0951 25.7148 20.3467C27.1371 21.5982 27.8482 23.0916 27.8482 24.8267C27.8482 26.3627 27.4784 27.6996 26.7388 28.8373C26.0277 29.9751 25.0464 30.928 23.7948 31.696C22.5717 32.464 21.1353 33.0471 19.4855 33.4453C17.8357 33.8151 16.0864 34 14.2375 34C13.2704 34 12.2037 33.9858 11.0375 33.9573C9.89972 33.9004 8.49172 33.872 6.8135 33.872C6.10239 33.872 5.36283 33.8862 4.59483 33.9147C3.82683 33.9147 3.1015 33.9289 2.41883 33.9573C1.73616 33.9573 1.15305 33.9716 0.669496 34L0.840163 33.1467C1.80727 33.0898 2.56105 32.976 3.1015 32.8053C3.64194 32.6347 4.06861 32.2933 4.3815 31.7813C4.69439 31.2693 4.97883 30.5013 5.23483 29.4773L10.8668 8.31466C11.0659 7.46133 11.1797 6.77866 11.2082 6.26666C11.2366 5.72622 11.0375 5.328 10.6108 5.072C10.2126 4.78755 9.45883 4.64533 8.3495 4.64533L8.56283 3.792C9.04639 3.82044 9.61527 3.84889 10.2695 3.87733C10.9522 3.87733 11.6775 3.89155 12.4455 3.92C13.2135 3.92 13.9246 3.92 14.5788 3.92C15.8019 3.92 16.8828 3.90578 17.8215 3.87733C18.7886 3.84889 19.7557 3.83467 20.7228 3.83467ZM12.7442 18.6827L12.9148 17.9573H16.0722C17.6935 17.9573 19.0731 17.5449 20.2108 16.72C21.3771 15.8667 22.2588 14.7573 22.8562 13.392C23.4819 12.0267 23.7948 10.5902 23.7948 9.08266C23.7948 7.66044 23.5104 6.56533 22.9415 5.79733C22.4011 5.02933 21.4482 4.64533 20.0828 4.64533C19.0873 4.64533 18.3762 4.84444 17.9495 5.24266C17.5228 5.61244 17.1531 6.42311 16.8402 7.67466L11.0802 29.4773C10.9095 30.1884 10.7957 30.8142 10.7388 31.3547C10.7104 31.8951 10.8526 32.3076 11.1655 32.592C11.4784 32.8764 12.0615 33.0187 12.9148 33.0187C14.9344 33.0187 16.5842 32.6347 17.8642 31.8667C19.1442 31.0987 20.0971 30.0462 20.7228 28.7093C21.3486 27.344 21.6615 25.808 21.6615 24.1013C21.6615 23.0489 21.4766 22.1244 21.1068 21.328C20.7655 20.5031 20.2108 19.8631 19.4428 19.408C18.6748 18.9244 17.6508 18.6827 16.3708 18.6827H12.7442ZM37.9478 4.64533C38.0332 3.59289 38.4598 2.75378 39.2278 2.128C39.9958 1.50222 40.8918 1.18933 41.9158 1.18933C42.8545 1.18933 43.5656 1.45955 44.0492 2C44.5612 2.512 44.7745 3.18044 44.6892 4.00533C44.6038 4.97244 44.1772 5.78311 43.4092 6.43733C42.6412 7.09155 41.7452 7.41866 40.7212 7.41866C39.7825 7.41866 39.0572 7.16266 38.5452 6.65066C38.0616 6.11022 37.8625 5.44178 37.9478 4.64533ZM36.4545 15.6107C36.9665 14.0747 36.7958 13.3067 35.9425 13.3067C35.3736 13.3067 34.8616 13.6053 34.4065 14.2027C33.9514 14.7716 33.4678 15.696 32.9558 16.976L32.2305 18.9813H31.4198L32.5292 15.7813C32.9558 14.6436 33.4678 13.7618 34.0652 13.136C34.6625 12.4818 35.3309 12.0267 36.0705 11.7707C36.8101 11.5147 37.5354 11.3867 38.2465 11.3867C39.2421 11.3867 39.9958 11.5716 40.5078 11.9413C41.0198 12.3111 41.3612 12.7947 41.5318 13.392C41.7025 13.9893 41.7452 14.6436 41.6598 15.3547C41.5745 16.0373 41.4181 16.7058 41.1905 17.36L36.6678 30.3733C36.4118 31.1413 36.3407 31.7244 36.4545 32.1227C36.5683 32.4924 36.8385 32.6773 37.2652 32.6773C37.7203 32.6773 38.1754 32.4356 38.6305 31.952C39.1141 31.44 39.6261 30.4587 40.1665 29.008L40.8918 27.088H41.7025L40.6358 30.2027C40.2092 31.3404 39.6972 32.2364 39.0998 32.8907C38.5025 33.5164 37.8483 33.9573 37.1372 34.2133C36.4261 34.4693 35.7292 34.5973 35.0465 34.5973C33.7949 34.5973 32.8847 34.3271 32.3158 33.7867C31.7469 33.2178 31.4625 32.4498 31.4625 31.4827C31.4625 30.4871 31.6901 29.3493 32.1452 28.0693L36.4545 15.6107ZM46.2692 33.36C46.4967 33.4738 46.7385 33.5733 46.9945 33.6587C47.2505 33.7156 47.6061 33.744 48.0612 33.744C49.1421 33.744 50.0381 33.4027 50.7492 32.72C51.4887 32.0089 51.8585 31.0276 51.8585 29.776C51.8585 28.8658 51.6594 27.9413 51.2612 27.0027C50.8914 26.064 50.3225 25.0258 49.5545 23.888C48.8718 22.8924 48.2461 21.9111 47.6772 20.944C47.1367 19.9769 46.8665 18.8676 46.8665 17.616C46.8665 16.3929 47.1652 15.3262 47.7625 14.416C48.3598 13.4773 49.2132 12.7378 50.3225 12.1973C51.4318 11.6569 52.7261 11.3867 54.2052 11.3867C55.1723 11.3867 56.1252 11.5004 57.0638 11.728C58.0025 11.9556 58.7705 12.368 59.3678 12.9653C59.9652 13.5627 60.2638 14.4302 60.2638 15.568C60.2638 15.9662 60.1785 16.3929 60.0078 16.848C59.8372 17.2747 59.5812 17.6444 59.2398 17.9573C58.8985 18.2702 58.4434 18.4267 57.8745 18.4267C57.2772 18.4267 56.7794 18.1991 56.3812 17.744C55.9829 17.2604 55.7838 16.6489 55.7838 15.9093C55.7838 15.2551 55.8976 14.6436 56.1252 14.0747C56.3812 13.5058 56.6798 13.008 57.0212 12.5813C56.6229 12.3538 56.0541 12.24 55.3145 12.24C54.2905 12.24 53.4656 12.5671 52.8398 13.2213C52.2141 13.8756 51.9012 14.8 51.9012 15.9947C51.9012 16.6204 52.0007 17.2178 52.1998 17.7867C52.4274 18.3271 52.7261 18.896 53.0958 19.4933C53.4941 20.0622 53.9349 20.7307 54.4185 21.4987C55.2149 22.7787 55.8407 23.9307 56.2958 24.9547C56.7509 25.9502 56.9785 26.9742 56.9785 28.0267C56.9785 29.2782 56.6372 30.4018 55.9545 31.3973C55.3003 32.3929 54.3901 33.1751 53.2238 33.744C52.0576 34.3129 50.6923 34.5973 49.1278 34.5973C48.0185 34.5973 46.9518 34.4409 45.9278 34.128C44.9323 33.8436 44.1074 33.36 43.4532 32.6773C42.8274 31.9947 42.5145 31.056 42.5145 29.8613C42.5145 29.2071 42.6994 28.6098 43.0692 28.0693C43.4105 27.5004 43.9509 27.216 44.6905 27.216C45.4301 27.216 45.9847 27.5147 46.3545 28.112C46.7243 28.7093 46.9092 29.4489 46.9092 30.3307C46.9092 30.9564 46.8238 31.5396 46.6532 32.08C46.5109 32.592 46.3829 33.0187 46.2692 33.36ZM77.0682 11.984L76.9402 12.8373H62.6468L62.8602 11.984H77.0682ZM66.7002 30.3733C66.4726 31.1698 66.5011 31.7529 66.7855 32.1227C67.0984 32.4924 67.5108 32.6773 68.0228 32.6773C68.6202 32.6773 69.2175 32.3929 69.8148 31.824C70.4406 31.2551 71.0095 30.2596 71.5215 28.8373L72.1615 27.088H72.9722L72.1188 29.648C71.5215 31.4116 70.6966 32.6773 69.6442 33.4453C68.5917 34.2133 67.3402 34.5973 65.8895 34.5973C64.6095 34.5973 63.6282 34.3129 62.9455 33.744C62.2913 33.1751 61.8931 32.4071 61.7508 31.44C61.6371 30.4444 61.7651 29.3209 62.1348 28.0693L68.5775 5.584C69.6015 5.55555 70.5544 5.49866 71.4362 5.41333C72.3464 5.328 73.1997 5.18578 73.9962 4.98667L66.7002 30.3733ZM80.9202 34H75.6722L80.7922 15.6107C81.0482 14.7573 81.1335 14.16 81.0482 13.8187C80.9628 13.4773 80.7068 13.3067 80.2802 13.3067C79.7397 13.3067 79.2419 13.5769 78.7868 14.1173C78.3317 14.6578 77.8624 15.6107 77.3788 16.976L76.6535 18.9813H75.8428L76.9522 15.7813C77.3504 14.6436 77.8482 13.7618 78.4455 13.136C79.0428 12.4818 79.6971 12.0267 80.4082 11.7707C81.1193 11.5147 81.8446 11.3867 82.5842 11.3867C83.4944 11.3867 84.1628 11.5716 84.5895 11.9413C85.0446 12.3111 85.3291 12.7947 85.4428 13.392C85.5851 13.9893 85.6135 14.6436 85.5282 15.3547C85.4713 16.0373 85.3575 16.7058 85.1868 17.36L80.9202 34ZM91.8428 12.368C91.2171 12.368 90.5771 12.5956 89.9228 13.0507C89.2686 13.4773 88.5859 14.1742 87.8748 15.1413C87.1637 16.1084 86.4384 17.3884 85.6988 18.9813C84.9877 20.5458 84.2482 22.4658 83.4802 24.7413C82.7122 26.9884 81.9442 29.648 81.1762 32.72L82.2002 27.0453C83.0819 24.0587 83.9068 21.5698 84.6748 19.5787C85.4713 17.5591 86.2393 15.952 86.9788 14.7573C87.7468 13.5342 88.5575 12.6667 89.4108 12.1547C90.2642 11.6427 91.1886 11.3867 92.1842 11.3867C93.2082 11.3867 93.9904 11.6853 94.5308 12.2827C95.0997 12.88 95.3842 13.6196 95.3842 14.5013C95.3842 15.2124 95.2135 15.8809 94.8722 16.5067C94.5308 17.104 94.0757 17.5876 93.5068 17.9573C92.9664 18.2987 92.3406 18.4693 91.6295 18.4693C90.9184 18.4693 90.3495 18.2844 89.9228 17.9147C89.5246 17.5449 89.3255 17.0044 89.3255 16.2933C89.3255 15.6676 89.4677 15.0987 89.7522 14.5867C90.0366 14.0747 90.4064 13.648 90.8615 13.3067C91.3166 12.9369 91.8144 12.6809 92.3548 12.5387C92.2979 12.4818 92.2268 12.4391 92.1415 12.4107C92.0562 12.3822 91.9566 12.368 91.8428 12.368ZM106.822 12.24C106.083 12.24 105.329 12.624 104.561 13.392C103.793 14.1316 103.067 15.1556 102.385 16.464C101.702 17.744 101.076 19.1804 100.507 20.7733C99.9671 22.3662 99.5404 24.016 99.2275 25.7227C98.9146 27.4009 98.7582 29.008 98.7582 30.544C98.7582 31.6818 98.9004 32.5067 99.1848 33.0187C99.4977 33.5022 99.9528 33.744 100.55 33.744C101.261 33.744 102.001 33.3742 102.769 32.6347C103.537 31.8951 104.262 30.8996 104.945 29.648C105.656 28.368 106.282 26.9458 106.822 25.3813C107.363 23.7884 107.789 22.1387 108.102 20.432C108.415 18.7253 108.571 17.0613 108.571 15.44C108.571 14.2453 108.415 13.4204 108.102 12.9653C107.818 12.4818 107.391 12.24 106.822 12.24ZM93.7235 27.6853C93.7235 26.4053 93.8942 25.0258 94.2355 23.5467C94.6053 22.0676 95.1457 20.6169 95.8568 19.1947C96.5679 17.744 97.4497 16.4356 98.5022 15.2693C99.5831 14.0747 100.835 13.136 102.257 12.4533C103.679 11.7422 105.286 11.3867 107.078 11.3867C109.126 11.3867 110.719 11.9698 111.857 13.136C113.023 14.2738 113.606 15.9947 113.606 18.2987C113.606 19.5787 113.421 20.9582 113.051 22.4373C112.71 23.9164 112.184 25.3813 111.473 26.832C110.762 28.2542 109.866 29.5627 108.785 30.7573C107.732 31.9236 106.495 32.8622 105.073 33.5733C103.651 34.256 102.043 34.5973 100.251 34.5973C98.2035 34.5973 96.5964 34.0142 95.4302 32.848C94.2924 31.6818 93.7235 29.9609 93.7235 27.6853ZM143.548 3.83467C146.677 3.83467 148.952 4.34667 150.375 5.37067C151.797 6.36622 152.508 7.71733 152.508 9.424C152.508 10.9031 152.039 12.24 151.1 13.4347C150.19 14.6293 148.938 15.6391 147.345 16.464C145.752 17.2604 143.946 17.8151 141.927 18.128C144.942 18.3556 147.146 19.0951 148.54 20.3467C149.962 21.5982 150.673 23.0916 150.673 24.8267C150.673 26.3627 150.303 27.6996 149.564 28.8373C148.853 29.9751 147.871 30.928 146.62 31.696C145.397 32.464 143.96 33.0471 142.311 33.4453C140.661 33.8151 138.911 34 137.063 34C136.095 34 135.029 33.9858 133.863 33.9573C132.725 33.9004 131.317 33.872 129.639 33.872C128.927 33.872 128.188 33.8862 127.42 33.9147C126.652 33.9147 125.927 33.9289 125.244 33.9573C124.561 33.9573 123.978 33.9716 123.495 34L123.665 33.1467C124.632 33.0898 125.386 32.976 125.927 32.8053C126.467 32.6347 126.894 32.2933 127.207 31.7813C127.519 31.2693 127.804 30.5013 128.06 29.4773L133.692 8.31466C133.891 7.46133 134.005 6.77866 134.033 6.26666C134.062 5.72622 133.863 5.328 133.436 5.072C133.038 4.78755 132.284 4.64533 131.175 4.64533L131.388 3.792C131.871 3.82044 132.44 3.84889 133.095 3.87733C133.777 3.87733 134.503 3.89155 135.271 3.92C136.039 3.92 136.75 3.92 137.404 3.92C138.627 3.92 139.708 3.90578 140.647 3.87733C141.614 3.84889 142.581 3.83467 143.548 3.83467ZM135.569 18.6827L135.74 17.9573H138.897C140.519 17.9573 141.898 17.5449 143.036 16.72C144.202 15.8667 145.084 14.7573 145.681 13.392C146.307 12.0267 146.62 10.5902 146.62 9.08266C146.62 7.66044 146.335 6.56533 145.767 5.79733C145.226 5.02933 144.273 4.64533 142.908 4.64533C141.912 4.64533 141.201 4.84444 140.775 5.24266C140.348 5.61244 139.978 6.42311 139.665 7.67466L133.905 29.4773C133.735 30.1884 133.621 30.8142 133.564 31.3547C133.535 31.8951 133.678 32.3076 133.991 32.592C134.303 32.8764 134.887 33.0187 135.74 33.0187C137.759 33.0187 139.409 32.6347 140.689 31.8667C141.969 31.0987 142.922 30.0462 143.548 28.7093C144.174 27.344 144.487 25.808 144.487 24.1013C144.487 23.0489 144.302 22.1244 143.932 21.328C143.591 20.5031 143.036 19.8631 142.268 19.408C141.5 18.9244 140.476 18.6827 139.196 18.6827H135.569ZM158.554 30.3733C158.327 31.1413 158.27 31.7244 158.384 32.1227C158.526 32.4924 158.81 32.6773 159.237 32.6773C159.635 32.6773 160.062 32.4356 160.517 31.952C161 31.44 161.512 30.4587 162.053 29.008L162.736 27.088H163.546L162.48 30.2027C162.081 31.3404 161.584 32.2364 160.986 32.8907C160.389 33.5164 159.749 33.9573 159.066 34.2133C158.384 34.4693 157.687 34.5973 156.976 34.5973C156.065 34.5973 155.34 34.4267 154.8 34.0853C154.259 33.744 153.889 33.2747 153.69 32.6773C153.491 32.08 153.42 31.3973 153.477 30.6293C153.534 29.8329 153.704 28.9796 153.989 28.0693L160.773 5.54133C161.057 4.57422 161.029 3.86311 160.688 3.408C160.346 2.95289 159.479 2.72533 158.085 2.72533L158.384 1.82933C160.232 1.80089 161.882 1.64444 163.333 1.36C164.784 1.04711 166.177 0.620443 167.514 0.0799983L158.554 30.3733ZM172.873 4.64533C172.958 3.59289 173.385 2.75378 174.153 2.128C174.921 1.50222 175.817 1.18933 176.841 1.18933C177.779 1.18933 178.491 1.45955 178.974 2C179.486 2.512 179.699 3.18044 179.614 4.00533C179.529 4.97244 179.102 5.78311 178.334 6.43733C177.566 7.09155 176.67 7.41866 175.646 7.41866C174.707 7.41866 173.982 7.16266 173.47 6.65066C172.987 6.11022 172.787 5.44178 172.873 4.64533ZM171.379 15.6107C171.891 14.0747 171.721 13.3067 170.867 13.3067C170.299 13.3067 169.787 13.6053 169.331 14.2027C168.876 14.7716 168.393 15.696 167.881 16.976L167.155 18.9813H166.345L167.454 15.7813C167.881 14.6436 168.393 13.7618 168.99 13.136C169.587 12.4818 170.256 12.0267 170.995 11.7707C171.735 11.5147 172.46 11.3867 173.171 11.3867C174.167 11.3867 174.921 11.5716 175.433 11.9413C175.945 12.3111 176.286 12.7947 176.457 13.392C176.627 13.9893 176.67 14.6436 176.585 15.3547C176.499 16.0373 176.343 16.7058 176.115 17.36L171.593 30.3733C171.337 31.1413 171.266 31.7244 171.379 32.1227C171.493 32.4924 171.763 32.6773 172.19 32.6773C172.645 32.6773 173.1 32.4356 173.555 31.952C174.039 31.44 174.551 30.4587 175.091 29.008L175.817 27.088H176.627L175.561 30.2027C175.134 31.3404 174.622 32.2364 174.025 32.8907C173.427 33.5164 172.773 33.9573 172.062 34.2133C171.351 34.4693 170.654 34.5973 169.971 34.5973C168.72 34.5973 167.81 34.3271 167.241 33.7867C166.672 33.2178 166.387 32.4498 166.387 31.4827C166.387 30.4871 166.615 29.3493 167.07 28.0693L171.379 15.6107ZM181.194 33.36C181.422 33.4738 181.664 33.5733 181.92 33.6587C182.176 33.7156 182.531 33.744 182.986 33.744C184.067 33.744 184.963 33.4027 185.674 32.72C186.414 32.0089 186.784 31.0276 186.784 29.776C186.784 28.8658 186.584 27.9413 186.186 27.0027C185.816 26.064 185.248 25.0258 184.48 23.888C183.797 22.8924 183.171 21.9111 182.602 20.944C182.062 19.9769 181.792 18.8676 181.792 17.616C181.792 16.3929 182.09 15.3262 182.688 14.416C183.285 13.4773 184.138 12.7378 185.248 12.1973C186.357 11.6569 187.651 11.3867 189.13 11.3867C190.097 11.3867 191.05 11.5004 191.989 11.728C192.928 11.9556 193.696 12.368 194.293 12.9653C194.89 13.5627 195.189 14.4302 195.189 15.568C195.189 15.9662 195.104 16.3929 194.933 16.848C194.762 17.2747 194.506 17.6444 194.165 17.9573C193.824 18.2702 193.368 18.4267 192.8 18.4267C192.202 18.4267 191.704 18.1991 191.306 17.744C190.908 17.2604 190.709 16.6489 190.709 15.9093C190.709 15.2551 190.823 14.6436 191.05 14.0747C191.306 13.5058 191.605 13.008 191.946 12.5813C191.548 12.3538 190.979 12.24 190.24 12.24C189.216 12.24 188.391 12.5671 187.765 13.2213C187.139 13.8756 186.826 14.8 186.826 15.9947C186.826 16.6204 186.926 17.2178 187.125 17.7867C187.352 18.3271 187.651 18.896 188.021 19.4933C188.419 20.0622 188.86 20.7307 189.344 21.4987C190.14 22.7787 190.766 23.9307 191.221 24.9547C191.676 25.9502 191.904 26.9742 191.904 28.0267C191.904 29.2782 191.562 30.4018 190.88 31.3973C190.225 32.3929 189.315 33.1751 188.149 33.744C186.983 34.3129 185.617 34.5973 184.053 34.5973C182.944 34.5973 181.877 34.4409 180.853 34.128C179.857 33.8436 179.032 33.36 178.378 32.6773C177.752 31.9947 177.44 31.056 177.44 29.8613C177.44 29.2071 177.624 28.6098 177.994 28.0693C178.336 27.5004 178.876 27.216 179.616 27.216C180.355 27.216 180.91 27.5147 181.28 28.112C181.649 28.7093 181.834 29.4489 181.834 30.3307C181.834 30.9564 181.749 31.5396 181.578 32.08C181.436 32.592 181.308 33.0187 181.194 33.36ZM198.169 33.36C198.397 33.4738 198.638 33.5733 198.894 33.6587C199.15 33.7156 199.506 33.744 199.961 33.744C201.042 33.744 201.938 33.4027 202.649 32.72C203.389 32.0089 203.758 31.0276 203.758 29.776C203.758 28.8658 203.559 27.9413 203.161 27.0027C202.791 26.064 202.222 25.0258 201.454 23.888C200.772 22.8924 200.146 21.9111 199.577 20.944C199.037 19.9769 198.766 18.8676 198.766 17.616C198.766 16.3929 199.065 15.3262 199.662 14.416C200.26 13.4773 201.113 12.7378 202.222 12.1973C203.332 11.6569 204.626 11.3867 206.105 11.3867C207.072 11.3867 208.025 11.5004 208.964 11.728C209.902 11.9556 210.67 12.368 211.268 12.9653C211.865 13.5627 212.164 14.4302 212.164 15.568C212.164 15.9662 212.078 16.3929 211.908 16.848C211.737 17.2747 211.481 17.6444 211.14 17.9573C210.798 18.2702 210.343 18.4267 209.774 18.4267C209.177 18.4267 208.679 18.1991 208.281 17.744C207.883 17.2604 207.684 16.6489 207.684 15.9093C207.684 15.2551 207.798 14.6436 208.025 14.0747C208.281 13.5058 208.58 13.008 208.921 12.5813C208.523 12.3538 207.954 12.24 207.214 12.24C206.19 12.24 205.366 12.5671 204.74 13.2213C204.114 13.8756 203.801 14.8 203.801 15.9947C203.801 16.6204 203.901 17.2178 204.1 17.7867C204.327 18.3271 204.626 18.896 204.996 19.4933C205.394 20.0622 205.835 20.7307 206.318 21.4987C207.115 22.7787 207.741 23.9307 208.196 24.9547C208.651 25.9502 208.878 26.9742 208.878 28.0267C208.878 29.2782 208.537 30.4018 207.854 31.3973C207.2 32.3929 206.29 33.1751 205.124 33.744C203.958 34.3129 202.592 34.5973 201.028 34.5973C199.918 34.5973 198.852 34.4409 197.828 34.128C196.832 33.8436 196.007 33.36 195.353 32.6773C194.727 31.9947 194.414 31.056 194.414 29.8613C194.414 29.2071 194.599 28.6098 194.969 28.0693C195.31 27.5004 195.851 27.216 196.59 27.216C197.33 27.216 197.885 27.5147 198.254 28.112C198.624 28.7093 198.809 29.4489 198.809 30.3307C198.809 30.9564 198.724 31.5396 198.553 32.08C198.411 32.592 198.283 33.0187 198.169 33.36Z" fill="#474747"/>
</svg>
